<svg id="Layer_1" data-name="Layer 1" xmlns="http://www.w3.org/2000/svg" viewBox="0 0 1889 658.15"><defs><style>.cls-1{fill:#83313f;}.cls-2{fill:#eee0d9;}</style></defs><title>alpha_logo_beige</title><path class="cls-1" d="M128.88,444.34a114.26,114.26,0,0,1,37,5.9,129.83,129.83,0,0,1,32.42,16.37,22.8,22.8,0,0,1,7.86-15.72,23.68,23.68,0,0,1,16.37-6.55,24.59,24.59,0,0,1,24.23,24.23V655.86a24.59,24.59,0,0,1-24.23,24.23,23.63,23.63,0,0,1-16.37-6.55,22.76,22.76,0,0,1-7.86-15.72,129.33,129.33,0,0,1-32.42,16.37,114.26,114.26,0,0,1-37,5.9A116,116,0,0,1,83,670.92a116.67,116.67,0,0,1-62.87-62.86,119.16,119.16,0,0,1,0-91.68A116.65,116.65,0,0,1,83,453.51,116.14,116.14,0,0,1,128.88,444.34Zm0,47.8a67.31,67.31,0,0,0-27.18,5.57A70.88,70.88,0,0,0,64.37,535a69.1,69.1,0,0,0,0,54.36,70.95,70.95,0,0,0,37.33,37.34,69.1,69.1,0,0,0,54.36,0,70.95,70.95,0,0,0,37.33-37.34,69.1,69.1,0,0,0,0-54.36,70.88,70.88,0,0,0-37.33-37.33A67.51,67.51,0,0,0,128.88,492.14Z" transform="translate(-11 -208.58)"/><path class="cls-1" d="M359.38,208.59a24.59,24.59,0,0,1,24.23,24.23V655.87a24.23,24.23,0,0,1-48.46,0V232.81a24.57,24.57,0,0,1,24.23-24.22Z" transform="translate(-11 -208.58)"/><path class="cls-1" d="M593.16,444.34A116.18,116.18,0,0,1,639,453.51a116.65,116.65,0,0,1,62.87,62.87,120,120,0,0,1,0,92,118.78,118.78,0,0,1-25.21,37.33A117.35,117.35,0,0,1,639,670.93a116,116,0,0,1-45.84,9.17,114.22,114.22,0,0,1-37-5.9,118,118,0,0,1-32.42-17V842.5a23,23,0,0,1-7.2,17.36,24.54,24.54,0,0,1-34.06,0,23,23,0,0,1-7.2-17.36V562.22a112.19,112.19,0,0,1,5.89-36.34,129.5,129.5,0,0,1,16.37-32.42,22.23,22.23,0,0,1-16-7.86,24.32,24.32,0,0,1-6.22-16.37,24.59,24.59,0,0,1,24.88-24.88,22.59,22.59,0,0,1,16.05,6.55,26.4,26.4,0,0,1,8.19,15.72,129.32,129.32,0,0,1,32.42-16.37A111.58,111.58,0,0,1,593.16,444.34Zm0,48.46A67.31,67.31,0,0,0,566,498.37a74.78,74.78,0,0,0-22.27,14.74,68.89,68.89,0,0,0-15.06,76.3A70.95,70.95,0,0,0,566,626.75a69.1,69.1,0,0,0,54.36,0,70.95,70.95,0,0,0,37.33-37.34,69.1,69.1,0,0,0,0-54.36,68.16,68.16,0,0,0-15.06-21.94,75,75,0,0,0-22.27-14.74A67.34,67.34,0,0,0,593.16,492.8Z" transform="translate(-11 -208.58)"/><path class="cls-1" d="M900.94,444.34a113.84,113.84,0,0,1,45.51,9.17,119,119,0,0,1,37.33,25.21,123.74,123.74,0,0,1,25.54,37.33,110.44,110.44,0,0,1,9.5,45.51v94.3a24.23,24.23,0,0,1-48.46,0V562.21A67.31,67.31,0,0,0,964.79,535a75.07,75.07,0,0,0-14.73-22.27,68.5,68.5,0,0,0-49.12-20.63,65.22,65.22,0,0,0-25.54,5.24,75.23,75.23,0,0,0-22.27,14.41,73.33,73.33,0,0,0-15.71,21,56.3,56.3,0,0,0-5.9,25.54v97.58a24.23,24.23,0,0,1-48.46,0v-423a24.23,24.23,0,0,1,48.46,0V467.26a118.17,118.17,0,0,1,32.42-17A114.3,114.3,0,0,1,900.94,444.34Z" transform="translate(-11 -208.58)"/><path class="cls-1" d="M1202.18,444.34a114.26,114.26,0,0,1,37,5.9,129.6,129.6,0,0,1,32.41,16.37,22.8,22.8,0,0,1,7.86-15.72,23.68,23.68,0,0,1,16.37-6.55,24.59,24.59,0,0,1,24.23,24.23V655.86a24.59,24.59,0,0,1-24.23,24.23,23.63,23.63,0,0,1-16.37-6.55,22.76,22.76,0,0,1-7.86-15.72,129.43,129.43,0,0,1-32.41,16.37,114.26,114.26,0,0,1-37,5.9,116,116,0,0,1-45.84-9.17,116.7,116.7,0,0,1-62.86-62.86,119.16,119.16,0,0,1,0-91.68,116.67,116.67,0,0,1,62.86-62.87A116.18,116.18,0,0,1,1202.18,444.34Zm0,47.8a67.27,67.27,0,0,0-27.18,5.57A70.91,70.91,0,0,0,1137.68,535a69.1,69.1,0,0,0,0,54.36A71,71,0,0,0,1175,626.74a69.1,69.1,0,0,0,54.36,0,71,71,0,0,0,37.32-37.34,69.1,69.1,0,0,0,0-54.36,70.91,70.91,0,0,0-37.32-37.33A67.48,67.48,0,0,0,1202.18,492.14Z" transform="translate(-11 -208.58)"/><circle class="cls-1" cx="1658.59" cy="297.27" r="230.41"/><path class="cls-2" d="M1727.57,549.15c-19.74-17.2-26.46-50.18-58-50.18-33.08,0-38,33.53-57.72,52-15.81,14.77-65,34.39-50.11,59.52,28.45,48,48.3,5.63,107.84,5.63s80.87,41.88,107.85-5.63C1793.37,582.39,1745.09,564.43,1727.57,549.15Z" transform="translate(-11 -208.58)"/><path class="cls-2" d="M1629.43,491.4a32.53,32.53,0,0,0,32.48-32.52c0-17.94,4.91-83.89-32.48-80.43s-41.46,60.46-32.52,80.43C1604.22,475.25,1611.47,491.4,1629.43,491.4Z" transform="translate(-11 -208.58)"/><path class="cls-2" d="M1581.79,556.08a32.5,32.5,0,0,0,16.56-42.86c-7.25-16.41-38.44-72.79-62.2-60.46s-4.49,70.32,2.75,86.71A32.55,32.55,0,0,0,1581.79,556.08Z" transform="translate(-11 -208.58)"/><path class="cls-2" d="M1799.66,452.84c-15.63-5.71-22.65,21.42-35.39,37.8-10,12.81-27.24,13.91-29.94,21.29-6.11,16.85,9.83,40.91,26.73,47.05a32.5,32.5,0,0,0,41.63-19.44C1808.82,522.69,1827.51,463,1799.66,452.84Z" transform="translate(-11 -208.58)"/><path class="cls-2" d="M1710.3,491.4c18,0,32.14-22.07,35.33-39.7,3.51-19.2-.84-73.81-35.33-73.26s-32.5,62.48-32.5,80.42A32.55,32.55,0,0,0,1710.3,491.4Z" transform="translate(-11 -208.58)"/></svg>