<svg id="Layer_1" data-name="Layer 1" xmlns="http://www.w3.org/2000/svg" viewBox="0 0 1889 658.41"><defs><style>.cls-1{fill:#83313f;}.cls-2{fill:#fff;}</style></defs><title>alpha_contrast</title><rect class="cls-1" y="0.41" width="1889" height="658"/><path class="cls-2" d="M117.88,235.34a114.35,114.35,0,0,1,37,5.89,130.11,130.11,0,0,1,32.41,16.37,22.78,22.78,0,0,1,7.86-15.71,23.68,23.68,0,0,1,16.37-6.55,24.59,24.59,0,0,1,24.23,24.23V446.86a24.59,24.59,0,0,1-24.23,24.23,23.67,23.67,0,0,1-16.37-6.54,22.76,22.76,0,0,1-7.86-15.72,129.43,129.43,0,0,1-32.41,16.37,114.35,114.35,0,0,1-37,5.89,118.05,118.05,0,0,1-83.5-34.38A117.41,117.41,0,0,1,9.17,399.06a119.16,119.16,0,0,1,0-91.68A116.65,116.65,0,0,1,72,244.51,116.14,116.14,0,0,1,117.88,235.34Zm0,47.8a67.44,67.44,0,0,0-27.18,5.57A70.88,70.88,0,0,0,53.37,326a69.08,69.08,0,0,0,0,54.35A70.88,70.88,0,0,0,90.7,417.72a69.08,69.08,0,0,0,54.35,0,70.88,70.88,0,0,0,37.33-37.33,69.08,69.08,0,0,0,0-54.35,70.88,70.88,0,0,0-37.33-37.33A67.43,67.43,0,0,0,117.88,283.14Z" transform="translate(0 0.41)"/><path class="cls-2" d="M348.38-.41a23.3,23.3,0,0,1,17,7.2,23.3,23.3,0,0,1,7.2,17V446.86a24.23,24.23,0,0,1-48.46,0v-423a23.3,23.3,0,0,1,7.2-17A23.29,23.29,0,0,1,348.38-.41Z" transform="translate(0 0.41)"/><path class="cls-2" d="M582.16,235.34A116.18,116.18,0,0,1,628,244.51a116.65,116.65,0,0,1,62.87,62.87,120,120,0,0,1,0,92,118.67,118.67,0,0,1-25.21,37.33A117.35,117.35,0,0,1,628,461.92a116,116,0,0,1-45.84,9.17,114.26,114.26,0,0,1-37-5.89,117.84,117.84,0,0,1-32.41-17V633.5a23,23,0,0,1-7.21,17.36,24.53,24.53,0,0,1-34.05,0,23,23,0,0,1-7.2-17.36V353.22a112.25,112.25,0,0,1,5.89-36.35,129.5,129.5,0,0,1,16.37-32.42,22.22,22.22,0,0,1-16-7.85,24.29,24.29,0,0,1-6.22-16.37,24.59,24.59,0,0,1,24.88-24.89,22.59,22.59,0,0,1,16.05,6.55,26.36,26.36,0,0,1,8.18,15.71,129.66,129.66,0,0,1,32.42-16.37A112.11,112.11,0,0,1,582.16,235.34Zm0,48.46A67.31,67.31,0,0,0,555,289.37a74.57,74.57,0,0,0-22.26,14.73,68.88,68.88,0,0,0-15.06,76.29A70.91,70.91,0,0,0,555,417.72a69.1,69.1,0,0,0,54.36,0,70.88,70.88,0,0,0,37.33-37.33,68.7,68.7,0,0,0-15.06-76.29,74.88,74.88,0,0,0-22.27-14.73A67.34,67.34,0,0,0,582.16,283.8Z" transform="translate(0 0.41)"/><path class="cls-2" d="M889.94,235.34a113.89,113.89,0,0,1,45.52,9.17,119.12,119.12,0,0,1,37.33,25.21,123.79,123.79,0,0,1,25.54,37.33,110.59,110.59,0,0,1,9.49,45.51v94.3a24.23,24.23,0,0,1-48.46,0V353.22A67.31,67.31,0,0,0,953.79,326a74.75,74.75,0,0,0-14.73-22.27,68.5,68.5,0,0,0-49.12-20.63,65.4,65.4,0,0,0-25.54,5.24,75.19,75.19,0,0,0-22.26,14.41,73.46,73.46,0,0,0-15.72,21,56.3,56.3,0,0,0-5.89,25.54v97.57a24.24,24.24,0,0,1-48.47,0v-423a23.27,23.27,0,0,1,7.21-17,23.73,23.73,0,0,1,34.05,0,23.31,23.31,0,0,1,7.21,17V258.26a118,118,0,0,1,32.42-17A114.2,114.2,0,0,1,889.94,235.34Z" transform="translate(0 0.41)"/><path class="cls-2" d="M1191.18,235.34a114.26,114.26,0,0,1,37,5.89,130,130,0,0,1,32.42,16.37,22.78,22.78,0,0,1,7.86-15.71,23.66,23.66,0,0,1,16.37-6.55,24.61,24.61,0,0,1,24.23,24.23V446.86a24.61,24.61,0,0,1-24.23,24.23,23.65,23.65,0,0,1-16.37-6.54,22.76,22.76,0,0,1-7.86-15.72,129.33,129.33,0,0,1-32.42,16.37,114.26,114.26,0,0,1-37,5.89,118,118,0,0,1-83.49-34.38,117.27,117.27,0,0,1-25.22-37.65,119.16,119.16,0,0,1,0-91.68,116.73,116.73,0,0,1,62.87-62.87A116.18,116.18,0,0,1,1191.18,235.34Zm0,47.8a67.44,67.44,0,0,0-27.18,5.57A70.91,70.91,0,0,0,1126.68,326a69.08,69.08,0,0,0,0,54.35A70.91,70.91,0,0,0,1164,417.72a69.1,69.1,0,0,0,54.36,0,70.91,70.91,0,0,0,37.32-37.33,69.08,69.08,0,0,0,0-54.35,70.91,70.91,0,0,0-37.32-37.33A67.48,67.48,0,0,0,1191.18,283.14Z" transform="translate(0 0.41)"/><circle class="cls-2" cx="1658.59" cy="297.27" r="230.41"/><path class="cls-1" d="M1716.57,340.15c-19.74-17.19-26.47-50.18-58-50.18-33.08,0-38,33.54-57.73,52-15.81,14.76-65,34.39-50.11,59.52,28.45,48,48.3,5.63,107.84,5.63s80.86,41.88,107.85-5.63C1782.37,373.39,1734.09,355.43,1716.57,340.15Z" transform="translate(0 0.41)"/><path class="cls-1" d="M1618.43,282.4a32.52,32.52,0,0,0,32.48-32.52c0-17.94,4.91-83.89-32.48-80.43s-41.46,60.46-32.52,80.43C1593.22,266.25,1600.47,282.4,1618.43,282.4Z" transform="translate(0 0.41)"/><path class="cls-1" d="M1570.79,347.08a32.51,32.51,0,0,0,16.56-42.86c-7.25-16.4-38.44-72.78-62.2-60.46s-4.49,70.32,2.74,86.72A32.56,32.56,0,0,0,1570.79,347.08Z" transform="translate(0 0.41)"/><path class="cls-1" d="M1788.66,243.84c-15.63-5.72-22.65,21.42-35.39,37.8-10,12.81-27.24,13.9-29.94,21.29-6.11,16.85,9.84,40.91,26.73,47.05a32.5,32.5,0,0,0,41.63-19.44C1797.82,313.69,1816.51,254,1788.66,243.84Z" transform="translate(0 0.41)"/><path class="cls-1" d="M1699.3,282.4c18,0,32.14-22.08,35.33-39.7,3.5-19.2-.84-73.81-35.33-73.26s-32.5,62.48-32.5,80.42A32.55,32.55,0,0,0,1699.3,282.4Z" transform="translate(0 0.41)"/></svg>