<?xml version="1.0" encoding="utf-8"?>
<!-- Generator: Adobe Illustrator 23.0.1, SVG Export Plug-In . SVG Version: 6.00 Build 0)  -->
<svg version="1.1" id="Layer_1" xmlns="http://www.w3.org/2000/svg" xmlns:xlink="http://www.w3.org/1999/xlink" x="0px" y="0px"
	 viewBox="0 0 1920 1080" style="enable-background:new 0 0 1920 1080;" xml:space="preserve">
<style type="text/css">
	.st0{fill:#83313F;}
	.st1{fill:#FFFFFF;}
</style>
<g>
	<g>
		<g>
			<path class="st0" d="M128.88,444.34c13.1,0,25.43,1.97,37,5.9c11.56,3.93,22.37,9.39,32.42,16.37
				c0.43-6.11,3.05-11.35,7.86-15.72c4.8-4.36,10.25-6.55,16.37-6.55c6.55,0,12.22,2.41,17.03,7.2c4.8,4.81,7.2,10.48,7.2,17.03
				v187.29c0,6.55-2.4,12.23-7.2,17.03c-4.81,4.81-10.48,7.2-17.03,7.2c-6.12,0-11.57-2.18-16.37-6.55
				c-4.81-4.36-7.43-9.6-7.86-15.72c-10.05,6.99-20.85,12.44-32.42,16.37c-11.57,3.93-23.9,5.9-37,5.9
				c-16.16,0-31.43-3.05-45.84-9.17c-14.41-6.11-26.96-14.51-37.66-25.21c-10.7-10.69-19.1-23.24-25.21-37.65
				C14.05,593.65,11,578.37,11,562.22c0-16.15,3.05-31.44,9.17-45.84c6.11-14.41,14.51-26.95,25.21-37.66
				c10.69-10.69,23.25-19.09,37.66-25.21C97.44,447.4,112.72,444.34,128.88,444.34z M128.88,492.14c-9.61,0-18.66,1.86-27.18,5.57
				c-8.51,3.72-15.94,8.74-22.27,15.06c-6.33,6.34-11.36,13.75-15.06,22.27c-3.71,8.51-5.57,17.58-5.57,27.18
				c0,9.61,1.85,18.66,5.57,27.18c3.7,8.51,8.73,15.95,15.06,22.27c6.32,6.34,13.75,11.36,22.27,15.07
				c8.51,3.71,17.57,5.57,27.18,5.57c9.6,0,18.66-1.85,27.18-5.57c8.51-3.71,15.93-8.73,22.27-15.07
				c6.32-6.32,11.35-13.75,15.06-22.27c3.71-8.51,5.57-17.57,5.57-27.18c0-9.6-1.86-18.67-5.57-27.18
				c-3.71-8.51-8.74-15.93-15.06-22.27c-6.33-6.32-13.75-11.35-22.27-15.06C147.54,494.01,138.48,492.14,128.88,492.14z"/>
			<path class="st0" d="M359.38,208.59c6.55,0,12.22,2.4,17.03,7.2c4.8,4.81,7.2,10.48,7.2,17.03v423.05c0,6.55-2.4,12.23-7.2,17.03
				c-4.81,4.81-10.48,7.2-17.03,7.2c-6.55,0-12.23-2.39-17.03-7.2c-4.81-4.8-7.2-10.48-7.2-17.03V232.81
				c0-6.55,2.39-12.22,7.2-17.03C347.15,210.99,352.83,208.59,359.38,208.59z"/>
			<path class="st0" d="M593.16,444.34c16.15,0,31.44,3.06,45.84,9.17c14.4,6.12,26.95,14.52,37.66,25.21
				c10.69,10.71,19.09,23.25,25.21,37.66c6.11,14.4,9.17,29.69,9.17,45.84c0,16.6-3.06,31.98-9.17,46.17
				c-6.12,14.19-14.52,26.64-25.21,37.33c-10.71,10.71-23.25,19.11-37.66,25.21c-14.41,6.12-29.69,9.17-45.84,9.17
				c-13.1,0-25.44-1.97-37-5.9c-11.57-3.93-22.38-9.6-32.42-17.03V842.5c0,6.98-2.4,12.77-7.2,17.36
				c-4.81,4.58-10.48,6.87-17.03,6.87c-6.55,0-12.23-2.29-17.03-6.87c-4.81-4.59-7.2-10.38-7.2-17.36V562.22
				c0-12.66,1.96-24.77,5.89-36.34c3.93-11.56,9.38-22.37,16.37-32.42c-6.55-0.43-11.9-3.05-16.04-7.86
				c-4.15-4.8-6.22-10.25-6.22-16.37c0-6.98,2.39-12.87,7.2-17.68c4.8-4.8,10.69-7.2,17.68-7.2c6.11,0,11.46,2.19,16.05,6.55
				c4.58,4.37,7.31,9.61,8.19,15.72c10.04-6.98,20.84-12.44,32.42-16.37C568.38,446.3,580.49,444.34,593.16,444.34z M593.16,492.8
				c-9.61,0-18.66,1.86-27.18,5.57c-8.51,3.72-15.94,8.62-22.27,14.74c-6.33,6.12-11.36,13.42-15.06,21.94
				c-3.71,8.51-5.57,17.58-5.57,27.18c0,9.61,1.85,18.66,5.57,27.18c3.7,8.51,8.73,15.95,15.06,22.27
				c6.32,6.34,13.75,11.36,22.27,15.07c8.51,3.71,17.57,5.57,27.18,5.57c9.6,0,18.66-1.85,27.18-5.57
				c8.51-3.71,15.94-8.73,22.27-15.07c6.32-6.32,11.35-13.75,15.06-22.27c3.7-8.51,5.57-17.57,5.57-27.18
				c0-9.6-1.86-18.67-5.57-27.18c-3.72-8.51-8.74-15.82-15.06-21.94c-6.33-6.11-13.76-11.02-22.27-14.74
				C611.82,494.66,602.76,492.8,593.16,492.8z"/>
			<path class="st0" d="M900.94,444.34c16.15,0,31.32,3.06,45.51,9.17c14.18,6.12,26.63,14.52,37.33,25.21
				c10.69,10.71,19.21,23.15,25.54,37.33c6.33,14.19,9.5,29.36,9.5,45.51v94.3c0,6.55-2.4,12.23-7.2,17.03
				c-4.81,4.81-10.47,7.2-17.03,7.2c-6.55,0-12.23-2.39-17.03-7.2c-4.81-4.8-7.2-10.48-7.2-17.03v-93.65
				c0-9.6-1.86-18.67-5.57-27.18c-3.72-8.51-8.62-15.93-14.73-22.27c-6.12-6.32-13.43-11.35-21.94-15.06
				c-8.51-3.7-17.58-5.57-27.18-5.57c-8.74,0-17.25,1.75-25.54,5.24c-8.3,3.5-15.72,8.3-22.27,14.41
				c-6.55,6.12-11.79,13.1-15.71,20.95c-3.93,7.86-5.9,16.37-5.9,25.54v97.58c0,6.55-2.4,12.23-7.2,17.03
				c-4.81,4.81-10.48,7.2-17.03,7.2s-12.23-2.39-17.03-7.2c-4.81-4.8-7.2-10.48-7.2-17.03V232.81c0-6.55,2.39-12.22,7.2-17.03
				c4.8-4.8,10.48-7.2,17.03-7.2s12.22,2.4,17.03,7.2c4.8,4.81,7.2,10.48,7.2,17.03v234.45c10.04-7.42,20.84-13.1,32.42-17.03
				C875.51,446.3,887.85,444.34,900.94,444.34z"/>
			<path class="st0" d="M1202.18,444.34c13.1,0,25.43,1.97,37,5.9c11.56,3.93,22.37,9.39,32.41,16.37
				c0.43-6.11,3.05-11.35,7.86-15.72c4.8-4.36,10.25-6.55,16.37-6.55c6.55,0,12.22,2.41,17.03,7.2c4.8,4.81,7.2,10.48,7.2,17.03
				v187.29c0,6.55-2.4,12.23-7.2,17.03c-4.81,4.81-10.47,7.2-17.03,7.2c-6.12,0-11.57-2.18-16.37-6.55
				c-4.81-4.36-7.43-9.6-7.86-15.72c-10.05,6.99-20.85,12.44-32.41,16.37c-11.57,3.93-23.9,5.9-37,5.9
				c-16.16,0-31.43-3.05-45.84-9.17c-14.41-6.11-26.96-14.51-37.65-25.21c-10.71-10.69-19.11-23.24-25.21-37.65
				c-6.12-14.41-9.17-29.69-9.17-45.84c0-16.15,3.05-31.44,9.17-45.84c6.11-14.41,14.51-26.95,25.21-37.66
				c10.69-10.69,23.24-19.09,37.65-25.21C1170.75,447.4,1186.02,444.34,1202.18,444.34z M1202.18,492.14
				c-9.61,0-18.67,1.86-27.18,5.57c-8.51,3.72-15.94,8.74-22.26,15.06c-6.33,6.34-11.36,13.75-15.06,22.27
				c-3.72,8.51-5.57,17.58-5.57,27.18c0,9.61,1.85,18.66,5.57,27.18c3.7,8.51,8.73,15.95,15.06,22.27
				c6.32,6.34,13.75,11.36,22.26,15.07c8.51,3.71,17.57,5.57,27.18,5.57c9.6,0,18.67-1.85,27.18-5.57
				c8.51-3.71,15.93-8.73,22.26-15.07c6.33-6.32,11.35-13.75,15.06-22.27c3.71-8.51,5.57-17.57,5.57-27.18
				c0-9.6-1.86-18.67-5.57-27.18c-3.71-8.51-8.74-15.93-15.06-22.27c-6.33-6.32-13.75-11.35-22.26-15.06
				C1220.85,494.01,1211.78,492.14,1202.18,492.14z"/>
		</g>
	</g>
	<circle class="st0" cx="1669.59" cy="505.85" r="230.41"/>
	<g>
		<g>
			<path class="st1" d="M1727.57,549.15c-19.74-17.2-26.46-50.18-58.02-50.18c-33.08,0-37.95,33.53-57.72,52
				c-15.81,14.77-65,34.39-50.11,59.52c28.45,47.98,48.3,5.63,107.84,5.63c59.54,0,80.87,41.88,107.85-5.63
				C1793.37,582.39,1745.09,564.43,1727.57,549.15z"/>
			<path class="st1" d="M1629.43,491.4c17.92,0,32.48-14.59,32.48-32.52c0-17.94,4.91-83.89-32.48-80.43
				c-37.36,3.47-41.46,60.46-32.52,80.43C1604.22,475.25,1611.47,491.4,1629.43,491.4z"/>
			<path class="st1" d="M1581.79,556.08c16.4-7.24,23.81-26.46,16.56-42.86c-7.25-16.41-38.44-72.79-62.2-60.46
				c-23.75,12.31-4.49,70.32,2.75,86.71C1546.13,555.85,1565.36,563.35,1581.79,556.08z"/>
			<path class="st1" d="M1799.66,452.84c-15.63-5.71-22.65,21.42-35.39,37.8c-9.96,12.81-27.24,13.91-29.94,21.29
				c-6.11,16.85,9.83,40.91,26.73,47.05c16.83,6.14,35.52-2.6,41.63-19.44C1808.82,522.69,1827.51,463.03,1799.66,452.84z"/>
			<path class="st1" d="M1710.3,491.4c17.96,0,32.14-22.07,35.33-39.7c3.51-19.2-0.84-73.81-35.33-73.26
				c-34.46,0.53-32.5,62.48-32.5,80.42C1677.8,476.81,1692.38,491.4,1710.3,491.4z"/>
		</g>
	</g>
</g>
</svg>
