<svg id="Layer_1" data-name="Layer 1" xmlns="http://www.w3.org/2000/svg" viewBox="0 0 605.17 532.5"><defs><style>.cls-1{fill:#83313f;}</style></defs><title>paw</title><path class="cls-1" d="M621.24,590.86C580,555,566,486.09,500.11,486.09c-69.06,0-79.23,70-120.5,108.57C346.6,625.49,243.9,666.45,275,718.92c59.4,100.17,100.84,11.75,225.14,11.75S669,818.11,725.3,718.92C758.62,660.25,657.82,622.76,621.24,590.86Z" transform="translate(-197.61 -234.2)"/><path class="cls-1" d="M416.35,470.29a67.91,67.91,0,0,0,67.81-67.89c0-37.46,10.25-175.15-67.81-167.92S329.79,360.7,348.46,402.4C363.72,436.57,378.86,470.29,416.35,470.29Z" transform="translate(-197.61 -234.2)"/><path class="cls-1" d="M316.89,605.32a67.86,67.86,0,0,0,34.58-89.48c-15.14-34.26-80.26-152-129.86-126.22s-9.38,146.81,5.74,181A67.94,67.94,0,0,0,316.89,605.32Z" transform="translate(-197.61 -234.2)"/><path class="cls-1" d="M771.75,389.79c-32.63-11.93-47.29,44.71-73.89,78.91-20.79,26.75-56.87,29-62.5,44.45-12.76,35.18,20.52,85.41,55.8,98.23a67.87,67.87,0,0,0,86.92-40.59C790.87,535.61,829.89,411.06,771.75,389.79Z" transform="translate(-197.61 -234.2)"/><path class="cls-1" d="M585.19,470.29c37.49,0,67.1-46.08,73.76-82.88,7.33-40.09-1.75-154.1-73.76-153S517.34,364.9,517.34,402.35A68,68,0,0,0,585.19,470.29Z" transform="translate(-197.61 -234.2)"/></svg>